REM MD5 4808aba3de7c43efbc84df44278040ac
FILE "Tetris Plus (USA).bin" BINARY
  TRACK 01 MODE2/2352
    INDEX 01 00:00:00
  TRACK 02 AUDIO
    INDEX 00 04:55:47
    INDEX 01 04:57:47
  TRACK 03 AUDIO
    INDEX 00 05:27:47
    INDEX 01 05:29:47
  TRACK 04 AUDIO
    INDEX 00 05:59:47
    INDEX 01 06:01:47
  TRACK 05 AUDIO
    INDEX 00 07:08:47
    INDEX 01 07:10:47
  TRACK 06 AUDIO
    INDEX 00 08:14:47
    INDEX 01 08:16:47
  TRACK 07 AUDIO
    INDEX 00 09:41:17
    INDEX 01 09:43:17
  TRACK 08 AUDIO
    INDEX 00 10:59:40
    INDEX 01 11:01:40
  TRACK 09 AUDIO
    INDEX 00 12:13:03
    INDEX 01 12:15:03
  TRACK 10 AUDIO
    INDEX 00 13:34:48
    INDEX 01 13:36:48
  TRACK 11 AUDIO
    INDEX 00 15:04:56
    INDEX 01 15:06:56
  TRACK 12 AUDIO
    INDEX 00 16:16:41
    INDEX 01 16:18:41
  TRACK 13 AUDIO
    INDEX 00 18:44:04
    INDEX 01 18:46:04
  TRACK 14 AUDIO
    INDEX 00 20:53:04
    INDEX 01 20:55:04
  TRACK 15 AUDIO
    INDEX 00 21:39:04
    INDEX 01 21:41:04
  TRACK 16 AUDIO
    INDEX 00 22:26:27
    INDEX 01 22:28:27
  TRACK 17 AUDIO
    INDEX 00 23:26:27
    INDEX 01 23:28:27
  TRACK 18 AUDIO
    INDEX 00 24:22:27
    INDEX 01 24:24:27
  TRACK 19 AUDIO
    INDEX 00 26:24:27
    INDEX 01 26:26:27
  TRACK 20 AUDIO
    INDEX 00 27:32:27
    INDEX 01 27:34:27
  TRACK 21 AUDIO
    INDEX 00 28:37:42
    INDEX 01 28:39:42
  TRACK 22 AUDIO
    INDEX 00 29:39:57
    INDEX 01 29:41:57
  TRACK 23 AUDIO
    INDEX 00 31:34:57
    INDEX 01 31:36:57
  TRACK 24 AUDIO
    INDEX 00 34:03:42
    INDEX 01 34:05:42
  TRACK 25 AUDIO
    INDEX 00 34:12:42
    INDEX 01 34:14:42
  TRACK 26 AUDIO
    INDEX 00 34:19:42
    INDEX 01 34:21:42
  TRACK 27 AUDIO
    INDEX 00 34:47:42
    INDEX 01 34:49:42
  TRACK 28 AUDIO
    INDEX 00 35:33:12
    INDEX 01 35:35:12
  TRACK 29 AUDIO
    INDEX 00 37:22:12
    INDEX 01 37:24:12
  TRACK 30 AUDIO
    INDEX 00 38:24:12
    INDEX 01 38:26:12
  TRACK 31 AUDIO
    INDEX 00 39:01:12
    INDEX 01 39:03:12
  TRACK 32 AUDIO
    INDEX 00 40:05:12
    INDEX 01 40:07:12
  TRACK 33 AUDIO
    INDEX 00 40:59:12
    INDEX 01 41:01:12
  TRACK 34 AUDIO
    INDEX 00 42:43:12
    INDEX 01 42:45:12
  TRACK 35 AUDIO
    INDEX 00 43:15:12
    INDEX 01 43:17:12
  TRACK 36 AUDIO
    INDEX 00 44:24:50
    INDEX 01 44:26:50
  TRACK 37 AUDIO
    INDEX 00 45:30:28
    INDEX 01 45:32:28
  TRACK 38 AUDIO
    INDEX 00 46:16:28
    INDEX 01 46:18:28
  TRACK 39 AUDIO
    INDEX 00 47:03:58
    INDEX 01 47:05:58
  TRACK 40 AUDIO
    INDEX 00 49:08:06
    INDEX 01 49:10:06
  TRACK 41 AUDIO
    INDEX 00 50:16:06
    INDEX 01 50:18:06
  TRACK 42 AUDIO
    INDEX 00 51:20:59
    INDEX 01 51:22:59
  TRACK 43 AUDIO
    INDEX 00 52:22:59
    INDEX 01 52:24:59
  TRACK 44 AUDIO
    INDEX 00 54:12:29
    INDEX 01 54:14:29
  TRACK 45 AUDIO
    INDEX 00 54:20:37
    INDEX 01 54:22:37
  TRACK 46 AUDIO
    INDEX 00 54:27:37
    INDEX 01 54:29:37
  TRACK 47 AUDIO
    INDEX 00 54:55:37
    INDEX 01 54:57:37
  TRACK 48 AUDIO
    INDEX 00 55:41:15
    INDEX 01 55:43:15
  TRACK 49 AUDIO
    INDEX 00 57:30:15
    INDEX 01 57:32:15
  TRACK 50 AUDIO
    INDEX 00 58:32:00
    INDEX 01 58:34:00
  TRACK 51 AUDIO
    INDEX 00 59:10:00
    INDEX 01 59:12:00
  TRACK 52 AUDIO
    INDEX 00 60:12:53
    INDEX 01 60:14:53
REM LEADOUT 63:44:53
